<svg xmlns="http://www.w3.org/2000/svg" version="1.1" width="1184px" height="864px" style="shape-rendering:geometricPrecision; text-rendering:geometricPrecision; image-rendering:optimizeQuality; fill-rule:evenodd; clip-rule:evenodd" xmlns:xlink="http://www.w3.org/1999/xlink">
<g></g>
<g><path style="opacity:1" fill="#31456a" d="M 435.5,380.5 C 439.575,381.06 443.075,382.727 446,385.5C 448.757,383.205 451.923,382.205 455.5,382.5C 455.292,386.144 453.292,388.311 449.5,389C 446.77,391.575 445.103,394.741 444.5,398.5C 443.5,398.5 442.5,398.5 441.5,398.5C 441.5,396.5 441.5,394.5 441.5,392.5C 437.894,392.789 434.394,392.456 431,391.5C 429.759,390.123 429.592,388.79 430.5,387.5C 433.786,390.267 436.786,389.934 439.5,386.5C 437.722,384.736 436.389,382.736 435.5,380.5 Z" data-index="1"></path></g>
<g><path style="opacity:1" fill="#c5dc58" d="M 418.5,385.5 C 420.196,387.288 421.529,389.455 422.5,392C 421.046,394.728 418.712,395.894 415.5,395.5C 417.445,392.515 418.445,389.182 418.5,385.5 Z" data-index="2"></path></g>
<g><path style="opacity:1" fill="#5a6a8b" d="M 424.5,395.5 C 425.755,393.359 427.422,392.693 429.5,393.5C 428.332,395.217 426.665,395.884 424.5,395.5 Z" data-index="3"></path></g>
<g><path style="opacity:1" fill="#304871" d="M 424.5,395.5 C 413.987,401.509 404.821,409.176 397,418.5C 392.868,424.84 391.368,431.84 392.5,439.5C 388.602,432.821 388.602,425.987 392.5,419C 400.206,407.127 410.872,399.293 424.5,395.5 Z" data-index="4"></path></g>
<g><path style="opacity:1" fill="#ecf0c4" d="M 737.5,410.5 C 740.962,409.518 744.629,409.185 748.5,409.5C 748.5,413.5 748.5,417.5 748.5,421.5C 747.518,418.038 747.185,414.371 747.5,410.5C 744.167,410.5 740.833,410.5 737.5,410.5 Z" data-index="5"></path></g>
<g><path style="opacity:1" fill="#cad85a" d="M 421.5,399.5 C 422.854,408.996 424.02,418.662 425,428.5C 426.11,433.164 427.61,437.664 429.5,442C 427.19,442.497 424.857,442.663 422.5,442.5C 422.138,438.32 421.138,434.32 419.5,430.5C 418.452,434.265 417.118,437.931 415.5,441.5C 413.579,442.641 411.579,442.808 409.5,442C 411.08,438.121 412.414,434.121 413.5,430C 412.032,427.972 412.199,426.138 414,424.5C 414.727,417.506 415.393,410.506 416,403.5C 418.167,402.512 420,401.179 421.5,399.5 Z" data-index="6"></path></g>
<g><path style="opacity:1" fill="#a4abb9" d="M 544.5,421.5 C 548.298,420.517 552.298,420.183 556.5,420.5C 556.737,421.791 556.404,422.791 555.5,423.5C 552.316,421.586 548.649,420.92 544.5,421.5 Z" data-index="7"></path></g>
<g><path style="opacity:1" fill="#273e68" d="M 571.5,420.5 C 589.511,419.178 597.844,427.511 596.5,445.5C 587.833,445.5 579.167,445.5 570.5,445.5C 571.251,451.247 574.585,454.247 580.5,454.5C 583.966,454.4 587.132,453.4 590,451.5C 593.833,454.815 593.999,457.981 590.5,461C 575.586,467.371 565.086,463.204 559,448.5C 555.951,435.778 560.117,426.445 571.5,420.5 Z" data-index="8"></path></g>
<g><path style="opacity:1" fill="#283e67" d="M 484.5,420.5 C 491.061,419.919 497.395,420.752 503.5,423C 505,424.5 506.5,426 508,427.5C 509.436,439.09 509.936,450.757 509.5,462.5C 506.167,462.5 502.833,462.5 499.5,462.5C 499.762,461.022 499.429,459.689 498.5,458.5C 491.2,464.629 483.7,464.962 476,459.5C 470.815,448.676 473.982,441.509 485.5,438C 489.44,436.985 493.44,436.485 497.5,436.5C 498.026,433.192 496.693,431.026 493.5,430C 488.804,428.962 484.471,429.795 480.5,432.5C 478.914,430.33 477.58,427.996 476.5,425.5C 478.892,423.309 481.558,421.642 484.5,420.5 Z" data-index="9"></path></g>
<g><path style="opacity:1" fill="#e3e6a8" d="M 640.5,409.5 C 636.167,409.5 631.833,409.5 627.5,409.5C 627.5,427.167 627.5,444.833 627.5,462.5C 626.503,444.674 626.17,426.674 626.5,408.5C 631.363,408.181 636.03,408.514 640.5,409.5 Z" data-index="10"></path></g>
<g><path style="opacity:1" fill="#c9d557" d="M 777.5,420.5 C 794.477,420.147 802.144,428.48 800.5,445.5C 791.475,445.168 782.475,445.502 773.5,446.5C 778.629,455.197 785.629,456.864 794.5,451.5C 796.086,453.67 797.42,456.004 798.5,458.5C 787.696,465.5 777.196,465.166 767,457.5C 761.433,448 761.1,438.333 766,428.5C 769.15,424.689 772.983,422.023 777.5,420.5 Z" data-index="11"></path></g>
<g><path style="opacity:1" fill="#283e65" d="M 544.5,421.5 C 548.649,420.92 552.316,421.586 555.5,423.5C 551.035,436.226 546.369,448.893 541.5,461.5C 537.167,462.833 532.833,462.833 528.5,461.5C 523.833,448.5 519.167,435.5 514.5,422.5C 518.5,421.167 522.5,421.167 526.5,422.5C 529.984,432.116 533.15,441.783 536,451.5C 538.213,441.315 541.046,431.315 544.5,421.5 Z" data-index="12"></path></g>
<g><path style="opacity:1" fill="#9198ab" d="M 471.5,423.5 C 471.5,426.167 471.5,428.833 471.5,431.5C 468.833,431.5 466.167,431.5 463.5,431.5C 465.607,430.532 467.941,430.198 470.5,430.5C 470.198,427.941 470.532,425.607 471.5,423.5 Z" data-index="13"></path></g>
<g><path style="opacity:1" fill="#f5f6f8" d="M 574.5,429.5 C 581.043,428.391 584.71,431.058 585.5,437.5C 580.5,437.5 575.5,437.5 570.5,437.5C 570.343,436.127 570.51,434.793 571,433.5C 572.376,432.295 573.542,430.962 574.5,429.5 Z" data-index="14"></path></g>
<g><path style="opacity:1" fill="#fbfcf2" d="M 789.5,437.5 C 784.305,437.821 779.305,437.487 774.5,436.5C 777.216,429.058 781.716,427.725 788,432.5C 789.009,434.025 789.509,435.692 789.5,437.5 Z" data-index="15"></path></g>
<g><path style="opacity:1" fill="#e1e7a3" d="M 758.5,430.5 C 755.375,431.479 752.042,431.813 748.5,431.5C 748.5,437.167 748.5,442.833 748.5,448.5C 747.51,442.69 747.177,436.69 747.5,430.5C 751.167,430.5 754.833,430.5 758.5,430.5 Z" data-index="16"></path></g>
<g><path style="opacity:1" fill="#c8d356" d="M 627.5,462.5 C 627.5,444.833 627.5,427.167 627.5,409.5C 631.833,409.5 636.167,409.5 640.5,409.5C 644.905,419.885 649.405,430.218 654,440.5C 658.069,430.127 662.236,419.793 666.5,409.5C 671.12,408.507 675.786,408.173 680.5,408.5C 680.5,426.5 680.5,444.5 680.5,462.5C 676.5,462.5 672.5,462.5 668.5,462.5C 668.667,451.495 668.5,440.495 668,429.5C 664.598,437.874 661.098,446.207 657.5,454.5C 654.833,455.833 652.167,455.833 649.5,454.5C 645.569,445.207 641.736,435.874 638,426.5C 638.415,438.455 638.581,450.455 638.5,462.5C 634.833,462.5 631.167,462.5 627.5,462.5 Z" data-index="17"></path></g>
<g><path style="opacity:1" fill="#e1e7a0" d="M 774.5,436.5 C 779.305,437.487 784.305,437.821 789.5,437.5C 784.32,438.815 778.986,438.815 773.5,437.5C 773.624,436.893 773.957,436.56 774.5,436.5 Z" data-index="18"></path></g>
<g></g>
<g><path style="opacity:1" fill="#e9edf0" d="M 492.5,443.5 C 494.5,443.5 496.5,443.5 498.5,443.5C 498.928,452.572 494.761,455.905 486,453.5C 485.333,451.833 485.333,450.167 486,448.5C 487.78,446.206 489.947,444.539 492.5,443.5 Z" data-index="20"></path></g>
<g><path style="opacity:1" fill="#cbd95b" d="M 407.5,462.5 C 404.615,462.806 401.948,462.473 399.5,461.5C 401.897,457.046 404.564,452.713 407.5,448.5C 406.355,447.109 406.355,445.776 407.5,444.5C 415.444,443.531 423.444,443.198 431.5,443.5C 431.338,445.527 431.505,447.527 432,449.5C 434.565,453.767 437.065,458.1 439.5,462.5C 436.894,463.652 434.227,463.818 431.5,463C 428.927,453.797 422.927,450.464 413.5,453C 410.016,455.3 408.016,458.467 407.5,462.5 Z" data-index="21"></path></g>
<g><path style="opacity:1" fill="#294168" d="M 602.5,403.5 C 606.5,403.5 610.5,403.5 614.5,403.5C 614.333,419.503 614.5,435.503 615,451.5C 616.444,453.155 618.278,453.822 620.5,453.5C 620.5,456.5 620.5,459.5 620.5,462.5C 611.741,465.867 605.907,463.2 603,454.5C 602.5,437.503 602.333,420.503 602.5,403.5 Z" data-index="22"></path></g>
<g><path style="opacity:1" fill="#c8d357" d="M 701.5,420.5 C 709.461,419.046 716.294,421.046 722,426.5C 722.667,427.833 723.333,429.167 724,430.5C 724.5,441.161 724.667,451.828 724.5,462.5C 721.167,462.5 717.833,462.5 714.5,462.5C 714.657,461.127 714.49,459.793 714,458.5C 706.162,464.978 698.496,464.978 691,458.5C 686.967,450.94 688.467,444.773 695.5,440C 700.91,437.618 706.576,436.451 712.5,436.5C 711.797,430.633 708.464,428.467 702.5,430C 700.385,430.557 698.385,431.391 696.5,432.5C 694.461,430.101 693.295,427.434 693,424.5C 695.738,422.711 698.572,421.378 701.5,420.5 Z" data-index="23"></path></g>
<g><path style="opacity:1" fill="#fcfdf7" d="M 711.5,443.5 C 714.221,451.623 711.221,455.123 702.5,454C 699.457,449.869 700.457,446.869 705.5,445C 707.708,444.809 709.708,444.309 711.5,443.5 Z" data-index="24"></path></g>
<g><path style="opacity: 1;" fill="#c8d455" d="M 737.5,410.5 C 740.833,410.5 744.167,410.5 747.5,410.5C 747.185,414.371 747.518,418.038 748.5,421.5C 751.833,421.5 755.167,421.5 758.5,421.5C 758.5,424.5 758.5,427.5 758.5,430.5C 754.833,430.5 751.167,430.5 747.5,430.5C 747.177,436.69 747.51,442.69 748.5,448.5C 749.238,453.337 751.904,454.671 756.5,452.5C 758.372,455.718 758.705,459.052 757.5,462.5C 751.342,464.28 745.509,463.613 740,460.5C 738.561,458.725 737.561,456.725 737,454.5C 736.5,446.507 736.334,438.507 736.5,430.5C 734.5,430.5 732.5,430.5 730.5,430.5C 730.5,427.5 730.5,424.5 730.5,421.5C 732.5,421.5 734.5,421.5 736.5,421.5C 736.185,417.629 736.518,413.962 737.5,410.5 Z" data-index="25"></path></g>
<g><path style="opacity:1" fill="#294167" d="M 471.5,423.5 C 470.532,425.607 470.198,427.941 470.5,430.5C 467.941,430.198 465.607,430.532 463.5,431.5C 460.944,432.543 458.777,434.21 457,436.5C 456.5,445.16 456.334,453.827 456.5,462.5C 452.5,462.5 448.5,462.5 444.5,462.5C 444.5,448.833 444.5,435.167 444.5,421.5C 447.833,421.5 451.167,421.5 454.5,421.5C 453.582,429.102 454.916,429.935 458.5,424C 462.29,420.979 466.623,419.812 471.5,420.5C 471.5,421.5 471.5,422.5 471.5,423.5 Z" data-index="26"></path></g>
<g><path style="opacity:1" fill="#dfe9a6" d="M 399.5,461.5 C 401.948,462.473 404.615,462.806 407.5,462.5C 404.645,463.803 401.645,463.803 398.5,462.5C 398.624,461.893 398.957,461.56 399.5,461.5 Z" data-index="27"></path></g>
</svg>